<svg width="83" height="23" viewBox="0 0 83 23" fill="none" xmlns="http://www.w3.org/2000/svg">
<path d="M0.289978 7.70815C1.52609 7.70815 2.76395 7.70815 4.04027 7.70815C4.04027 8.50546 4.04027 9.28211 4.04027 10.1604C5.03685 8.11111 6.7153 7.36718 8.79588 7.41195C10.8939 7.45672 12.4867 8.3832 13.4326 10.2534C13.7665 9.83317 14.0708 9.3751 14.4502 8.99108C15.4188 8.00951 16.6356 7.5411 18.0081 7.42917C18.9155 7.35512 19.809 7.43262 20.6744 7.7202C22.2742 8.24887 23.2585 9.37855 23.8233 10.9009C24.2289 11.9944 24.3425 13.1361 24.3443 14.2916C24.3478 16.9815 24.346 19.6713 24.346 22.3612C24.346 22.4284 24.3373 22.4972 24.3303 22.592C23.1082 22.592 21.8913 22.592 20.6325 22.592C20.6325 22.4576 20.6325 22.325 20.6325 22.1924C20.6325 19.6954 20.6465 17.2002 20.622 14.7032C20.6167 14.1297 20.5485 13.5373 20.3877 12.988C20.0572 11.8635 19.281 11.1419 18.0781 11.0076C16.7161 10.8561 15.5569 11.2435 14.8068 12.4628C14.4397 13.0586 14.2578 13.7199 14.2508 14.4121C14.2246 16.9866 14.2141 19.5611 14.2001 22.1373C14.2001 22.2837 14.2001 22.4301 14.2001 22.5988C12.9413 22.5988 11.7104 22.5988 10.4394 22.5988C10.4394 22.4559 10.4394 22.3216 10.4394 22.189C10.4376 19.5215 10.4446 16.854 10.4254 14.1866C10.4184 13.3255 10.1928 12.5075 9.59315 11.8514C8.663 10.8337 7.48634 10.7993 6.27471 11.1798C4.88649 11.6155 4.2763 12.6815 4.11545 14.0367C4.0595 14.5103 4.05775 14.9925 4.056 15.4695C4.05076 17.703 4.05426 19.9383 4.05426 22.1718C4.05426 22.3061 4.05426 22.4421 4.05426 22.6212C2.78318 22.6212 1.53658 22.6212 0.291726 22.6212C0.289978 17.6479 0.289978 12.678 0.289978 7.70815Z" fill="#0A0103"/>
<path d="M39.0412 9.47504C39.0412 8.96186 39.0412 8.3557 39.0412 7.72887C40.2983 7.72887 41.5204 7.72887 42.7705 7.72887C42.7705 12.6695 42.7705 17.6187 42.7705 22.592C41.5501 22.592 40.321 22.592 39.0604 22.592C39.0604 21.9703 39.0604 21.3487 39.0604 20.7064C38.9975 20.727 38.9573 20.727 38.9415 20.7477C37.9467 22.0737 36.5357 22.6833 34.9412 22.871C32.497 23.1603 30.3692 22.4422 28.6558 20.6771C27.4214 19.4062 26.7955 17.8529 26.6171 16.1136C26.4266 14.2624 26.6923 12.4869 27.6836 10.8889C29.2275 8.40047 31.5388 7.28629 34.4779 7.42234C35.8364 7.48605 37.0812 7.89418 38.1582 8.738C38.4712 8.98425 38.7702 9.24773 39.0412 9.47504ZM34.5933 10.8492C32.1892 10.851 30.3674 12.685 30.3639 15.1062C30.3604 17.5481 32.2137 19.4579 34.5968 19.4647C37.0428 19.4734 38.9835 17.5464 38.98 15.1165C38.9747 12.7435 37.0253 10.8475 34.5933 10.8492Z" fill="#0A0103"/>
<path d="M71.222 9.48357C71.222 8.96007 71.222 8.35218 71.222 7.72707C72.4791 7.72707 73.7012 7.72707 74.9496 7.72707C74.9496 12.6728 74.9496 17.6221 74.9496 22.5937C73.724 22.5937 72.4949 22.5937 71.2343 22.5937C71.2343 21.9668 71.2343 21.3469 71.2343 20.6632C70.9405 20.968 70.7115 21.2487 70.4405 21.4795C69.2096 22.5265 67.7357 22.945 66.1465 22.9346C64.0519 22.9208 62.2423 22.1717 60.8034 20.6512C59.562 19.3372 58.9361 17.7529 58.7805 15.974C58.6161 14.0953 58.9204 12.306 59.9694 10.7114C61.5237 8.35045 63.7861 7.29311 66.622 7.42054C67.9928 7.48253 69.2498 7.88894 70.3356 8.74136C70.6486 8.98762 70.944 9.25109 71.222 9.48357ZM66.7636 10.8492C64.3614 10.8526 62.5395 12.6883 62.5378 15.1096C62.536 17.5497 64.3928 19.4595 66.7741 19.4647C69.2219 19.4698 71.1608 17.5428 71.1538 15.113C71.1486 12.74 69.1991 10.8457 66.7636 10.8492Z" fill="#0A0103"/>
<path d="M56.7908 12.034C55.6071 12.034 54.4322 12.034 53.2608 12.034C52.8796 10.4996 51.2729 9.85901 49.9388 10.6994C48.9615 11.3159 48.9842 12.5472 50.0315 13.0207C50.6837 13.3169 51.4075 13.4616 52.1051 13.6562C53.1804 13.9558 54.2801 14.1762 55.254 14.76C57.3713 16.0292 57.9622 18.6932 56.5303 20.6615C55.7627 21.7154 54.6578 22.2992 53.4111 22.6281C51.3778 23.1654 49.4003 23.0535 47.5471 21.9978C46.0469 21.142 45.1885 19.8573 45.0538 18.1335C45.0504 18.0905 45.0591 18.0457 45.0626 17.9837C46.2253 17.9837 47.3775 17.9837 48.5594 17.9837C48.68 19.0066 49.2989 19.6076 50.2938 19.8453C51.105 20.0381 51.904 19.9675 52.6576 19.6007C53.301 19.2873 53.5825 18.7741 53.5195 18.1421C53.4688 17.6376 53.1559 17.319 52.717 17.1606C52.0911 16.935 51.4425 16.7679 50.7973 16.5974C49.7623 16.3236 48.7237 16.0722 47.7639 15.5694C45.4175 14.3398 45.0329 11.8049 45.8721 10.1466C46.4648 8.97387 47.4561 8.2196 48.6905 7.80975C50.8358 7.09854 52.9338 7.22769 54.885 8.41592C56.1701 9.19946 56.7681 10.4083 56.817 11.8859C56.8205 11.9307 56.8048 11.9737 56.7908 12.034Z" fill="#0A0103"/>
<path d="M82.0005 7.73914C82.0005 12.6935 82.0005 17.6341 82.0005 22.5954C80.7574 22.5954 79.5283 22.5954 78.2765 22.5954C78.2765 17.6462 78.2765 12.7073 78.2765 7.73914C79.5021 7.73914 80.7312 7.73914 82.0005 7.73914Z" fill="#0A0103"/>
<path d="M82.0008 7.73914H78.2785V17.765L82.0008 13.248V7.73914Z" fill="#ED0331"/>
<path d="M80.1233 4.38457C81.283 4.38457 82.2231 3.4586 82.2231 2.31637C82.2231 1.17413 81.283 0.248169 80.1233 0.248169C78.9636 0.248169 78.0234 1.17413 78.0234 2.31637C78.0234 3.4586 78.9636 4.38457 80.1233 4.38457Z" fill="#0A0103"/>
</svg>
